<?xml version="1.0" encoding="utf-8"?>
<!-- Generator: Adobe Illustrator 24.1.2, SVG Export Plug-In . SVG Version: 6.00 Build 0)  -->
<svg version="1.1" id="Layer_1" xmlns="http://www.w3.org/2000/svg" xmlns:xlink="http://www.w3.org/1999/xlink" x="0px" y="0px"
	 viewBox="0 0 111 68" enable-background="new 0 0 111 68" xml:space="preserve">
<path fill="#374143" d="M29.7,37.3c-5.7,0-8.1,4.7-8.1,9.5c0,5.1,2.4,9.5,8.1,9.5c4.5,0,6.9-2.4,7.8-6.4h-2.2
	c-0.7,2.7-2.4,4.6-5.6,4.6c-4.2,0-5.9-3.8-5.9-7h13.8C37.7,42.4,35.4,37.3,29.7,37.3z M23.8,45.5c0.3-3.3,2.3-6.4,5.9-6.4
	c3.5,0,5.6,3.1,5.7,6.4H23.8z M87.1,42L87.1,42l-0.1-4.2h-2v17.9h2.2v-9.5c0-3.7,2.7-6.6,6.7-6.4v-2.2C90.7,37.5,88.2,39.2,87.1,42z
	 M12.9,42.7l-6-1.5c-2-0.5-3.7-1.5-3.7-3.8c0-3.7,3-4.9,6.2-4.9c3.5,0,6.6,1.9,6.8,5.7h2.4c0-5.1-4.3-7.7-9.2-7.7
	c-7,0-8.5,4.5-8.5,7c0,3.8,2.7,5.2,5.6,6l5.5,1.4c2.3,0.6,5.1,1.7,5.1,4.5c0,3.6-4,5-6.5,5c-4.5,0-8.2-1.6-8.1-6.7H0
	c-0.3,6,4,8.7,9.9,8.7c8.8,0,9.5-5.4,9.5-7.1C19.4,45.1,16.4,43.6,12.9,42.7z M108.7,31v10.3h-0.1c-0.9-2.6-3.5-3.9-6.2-3.9
	c-5.4,0-8,4.4-8,9.5c0,5.1,2.6,9.5,8,9.5c2.6,0,5.4-1.6,6.4-3.9h0.1v3.4h2V31H108.7z M102.5,54.4c-4.2,0-5.9-3.9-5.9-7.6
	c0-3.7,1.7-7.6,5.9-7.6c4.6,0,6.3,3.9,6.3,7.6C108.7,50.5,107.1,54.4,102.5,54.4z M78.9,34.5H81V31h-2.2V34.5z M54.4,52.6v-9.5
	c0-4.8-3.4-5.8-6.6-5.8c-4.1,0-7,1.8-7.2,6h2.2c0.1-2.9,2.1-4.2,4.8-4.2c2.6,0,4.7,0.7,4.7,3.7c0,2-1,2.2-2.8,2.4
	c-4.7,0.6-9.6,0.7-9.6,5.8c0,3.6,2.7,5.2,6,5.2c3.4,0,5-1.3,6.5-3.6h0.1c0,1.9,0.3,3.1,2.6,3.1c0.6,0,0.9,0,1.4-0.1v-1.8
	c-0.2,0.1-0.4,0.1-0.7,0.1C54.8,53.9,54.4,53.4,54.4,52.6z M52.2,48.8c0,3.5-2.9,5.6-6.2,5.6c-2,0-4-1.4-4-3.5
	c0-3.5,4.6-3.5,8.3-4.1c0.6-0.1,1.6-0.3,1.8-0.8h0.1V48.8z M78.9,55.7H81V37.9h-2.2V55.7z M71.4,38.3c0,0.1,0,0.2-0.1,0.3
	c-0.1,0.5-0.2,1.2-0.4,1.9c1.7,1.4,2.4,4,2.4,6.4c0,3.7-1.7,7.6-5.9,7.6c-4.6,0-6.3-3.9-6.3-7.6c0-2.9,1-6,3.7-7.1
	c-0.1-0.7-0.1-1.3-0.1-1.8c-1.6,0.6-2.9,1.7-3.5,3.4h-0.1V31h-2.2v24.7h2v-3.4h0.1c1,2.4,3.5,3.9,6.4,3.9c5.4,0,8-4.4,8-9.5
	C75.6,43.1,74.2,39.8,71.4,38.3z M73.7,9.9c0.9-0.8,1.7-1.5,2.8-2.4c-0.9,1.1-1.8,2.4-2.8,3.8C73.6,10.9,73.6,10.4,73.7,9.9z
	 M76.3,4.2c-0.8,1.1-3.9,5-2.7,8c1.1,2.9,2.8,4.7,2.1,8.2l0.1-0.1c0,0,1.5-2,2.1-4.8c0,0,0.8,4.6-0.6,8.5c-1.4,3.9-5.1,6.5-6.4,8.8
	c-1.2,2.1-1.9,5.5-2.1,7.3c-0.3,2.5-0.4,4-0.7,5.7c0,0.2-0.4-3.6-0.5-5.7c-0.1-2-0.6-5.1,0.1-7.7c0.6-2.3,2.2-4.8,3.7-6.4
	c0,0,0.1-0.1,0.1-0.1c-0.1,0-1.8-0.2-3-0.8c-2.3-1.1-2.2-3.5-2-4.2c0.5-2.1,1.7-4.4,4-7.5c-0.1,0.1-0.2,0.9-0.1,1.6
	c0.1,0.8,0.2,1.3,0.2,1.3c-0.1,0.2-0.2,0.5-0.2,0.6c-0.3,1.1-0.9,3.5,0.9,5c0.8,0.6,1.2,0.9,1.6,1.8c0.1,0.2,0.1,0.3,0.1,0.3
	s-0.1-0.7-0.2-0.9c-0.2-1-0.7-2.5-1.2-4.3c-0.7-2.1-1.4-5.5,0.6-9.9c1.1-2.3,3-4.3,4.6-5.9C78.1,1.5,79.8,0,79.8,0
	C79.8,0,77.1,3.1,76.3,4.2z M25.4,26.1c-0.1-1-0.7-1.4-1.7-1.4c-0.8,0-1.5,0.3-1.5,1.1c0,0.8,1.1,0.9,2.2,1.2
	c1.1,0.2,2.1,0.6,2.1,1.9c0,1.4-1.4,2-2.6,2c-1.5,0-2.8-0.7-2.8-2.4H22c0,1.1,0.9,1.6,2,1.6c0.8,0,1.7-0.3,1.7-1.2
	c0-0.9-1.1-1.1-2.1-1.3c-1.1-0.2-2.2-0.5-2.2-1.8c0-1.4,1.2-2,2.4-2c1.4,0,2.4,0.6,2.5,2.1H25.4z M30.8,27.5c-0.1-0.6-0.5-1-1.2-1
	c-1.2,0-1.5,0.9-1.5,1.9c0,0.9,0.4,1.8,1.4,1.8c0.8,0,1.2-0.5,1.3-1.2h0.8c-0.2,1.2-0.9,1.9-2.1,1.9c-1.5,0-2.3-1-2.3-2.5
	c0-1.5,0.8-2.6,2.3-2.6c1.1,0,2,0.5,2.1,1.7H30.8z M34.6,25.8c1.5,0,2.4,1.1,2.4,2.5c0,1.4-0.8,2.5-2.4,2.5c-1.5,0-2.4-1.1-2.4-2.5
	C32.2,26.9,33,25.8,34.6,25.8z M34.6,30.2c0.8,0,1.5-0.7,1.5-1.8c0-1.2-0.7-1.8-1.5-1.8c-0.8,0-1.5,0.7-1.5,1.8
	C33.1,29.6,33.8,30.2,34.6,30.2z M39,25.9h1v0.7h-1v3c0,0.4,0.1,0.4,0.6,0.4h0.4v0.7h-0.6c-0.8,0-1.2-0.2-1.2-1.1v-3.1h-0.8v-0.7
	h0.8v-1.5H39V25.9z M41.9,25.9h1v0.7h-1v3c0,0.4,0.1,0.4,0.6,0.4h0.4v0.7h-0.6c-0.8,0-1.2-0.2-1.2-1.1v-3.1h-0.8v-0.7h0.8v-1.5h0.8
	V25.9z M44.5,25.1h-0.8v-1h0.8V25.1z M43.7,25.9h0.8v4.9h-0.8V25.9z M46.2,29.3c0,0.7,0.6,0.9,1.3,0.9c0.5,0,1.2-0.1,1.2-0.7
	c0-0.6-0.8-0.7-1.6-0.9c-0.8-0.2-1.6-0.4-1.6-1.4c0-1,1-1.4,1.8-1.4c1.1,0,1.9,0.3,2,1.5h-0.8c-0.1-0.6-0.6-0.8-1.1-0.8
	c-0.5,0-1,0.1-1,0.6c0,0.6,0.8,0.7,1.6,0.8c0.8,0.2,1.6,0.4,1.6,1.4c0,1.2-1.1,1.5-2.1,1.5c-1.1,0-2-0.4-2.1-1.6H46.2z M50.4,24.1
	h0.8v2.6h0c0.3-0.6,0.9-0.8,1.5-0.8c1.3,0,1.7,0.7,1.7,1.8v3.2h-0.8v-3.3c0-0.6-0.4-1-1-1c-1,0-1.4,0.6-1.4,1.5v2.7h-0.8V24.1z
	 M76,63.1c-0.2-0.9-0.9-1.4-1.9-1.4c-1.6,0-2.3,1.3-2.3,2.7c0,1.5,0.7,2.8,2.3,2.8c1.2,0,1.9-0.8,1.9-1.9H77
	C76.8,67,75.8,68,74.1,68C72,68,71,66.5,71,64.5c0-1.9,1.1-3.5,3.2-3.5c1.4,0,2.6,0.8,2.8,2.2H76z M82.1,66.3
	c-0.2,1.1-1,1.7-2.1,1.7c-1.6,0-2.3-1.1-2.3-2.6c0-1.5,1-2.5,2.3-2.5c1.7,0,2.2,1.6,2.2,2.8h-3.6c0,0.8,0.5,1.6,1.5,1.6
	c0.7,0,1.1-0.3,1.3-0.9H82.1z M81.3,64.9c0-0.8-0.6-1.4-1.4-1.4c-0.8,0-1.3,0.6-1.4,1.4H81.3z M83,63h0.8v0.8h0
	c0.3-0.6,0.9-0.9,1.6-0.9c1.3,0,1.7,0.7,1.7,1.8v3.2h-0.8v-3.3c0-0.6-0.4-1-1-1c-1,0-1.4,0.6-1.4,1.5v2.7H83V63z M89.4,63h1v0.7h-1
	v3c0,0.4,0.1,0.4,0.6,0.4h0.4v0.7h-0.6c-0.8,0-1.2-0.2-1.2-1.1v-3.1h-0.8V63h0.8v-1.5h0.8V63z M91.2,63h0.8v1h0
	c0.4-0.8,0.9-1.2,1.8-1.1v0.8c-1.3,0-1.8,0.7-1.8,2v2.2h-0.8V63z M98.3,66.3c-0.2,1.1-1,1.7-2.1,1.7c-1.6,0-2.3-1.1-2.3-2.6
	c0-1.5,1-2.5,2.3-2.5c1.7,0,2.2,1.6,2.2,2.8h-3.6c0,0.8,0.5,1.6,1.5,1.6c0.7,0,1.1-0.3,1.3-0.9H98.3z M97.6,64.9
	c0-0.8-0.6-1.4-1.4-1.4c-0.8,0-1.3,0.6-1.4,1.4H97.6z"/>
</svg>
