<?xml version="1.0" standalone="no"?>
<!DOCTYPE svg PUBLIC "-//W3C//DTD SVG 20010904//EN"
 "http://www.w3.org/TR/2001/REC-SVG-20010904/DTD/svg10.dtd">
<svg version="1.0" xmlns="http://www.w3.org/2000/svg"
 width="260.000000pt" height="260.000000pt" viewBox="0 0 260.000000 260.000000"
 preserveAspectRatio="xMidYMid meet">
<metadata>
Created by potrace 1.14, written by Peter Selinger 2001-2017
</metadata>
<g transform="translate(0.000000,260.000000) scale(0.100000,-0.100000)"
fill="#000000" stroke="none">
<path d="M1160 2364 c-266 -40 -428 -122 -545 -273 -97 -128 -138 -249 -139
-416 -1 -159 36 -281 117 -387 19 -25 33 -49 30 -52 -4 -3 -36 -6 -72 -6 -68
0 -117 15 -318 94 -57 22 -117 38 -162 42 l-71 7 0 -589 c0 -571 1 -590 21
-634 27 -60 64 -98 124 -126 l50 -24 1105 0 1105 0 50 24 c60 28 97 66 124
126 20 43 21 63 21 565 l-1 520 -77 26 c-42 15 -119 43 -170 63 -107 42 -215
56 -301 37 -52 -11 -54 -11 -87 18 -84 74 -193 115 -522 197 -313 78 -342 94
-342 184 1 72 36 104 138 120 68 12 167 -2 224 -31 51 -26 110 -87 133 -139
10 -22 23 -39 29 -37 6 2 122 40 258 83 137 44 248 84 248 89 0 19 -59 135
-98 192 -50 74 -163 181 -233 221 -73 42 -217 88 -312 101 -74 10 -271 13
-327 5z m20 -1015 c24 -5 98 -33 163 -60 199 -84 288 -87 464 -14 48 20 109
44 135 53 47 16 48 15 74 -9 46 -43 104 -142 128 -219 93 -294 -13 -598 -269
-769 -191 -127 -467 -184 -744 -152 -230 27 -387 97 -521 231 -92 91 -143 171
-189 290 -48 125 -74 107 234 167 149 28 275 52 280 53 6 0 17 -17 24 -37 50
-140 178 -217 361 -216 155 1 228 39 237 123 11 100 -64 149 -305 204 -261 60
-455 134 -560 213 -18 14 -31 27 -28 30 9 9 168 74 241 99 77 26 196 31 275
13z"/>
</g>
</svg>
